<svg width="32" height="32" viewBox="0 0 32 32" fill="none" xmlns="http://www.w3.org/2000/svg">
<g id="streamline:justice-hammer-solid" clip-path="url(#clip0_87_3)">
<path id="Vector" fill-rule="evenodd" clip-rule="evenodd" d="M8.86172 14.3223C8.54312 14.0039 8.29037 13.6258 8.11793 13.2097C7.94549 12.7936 7.85674 12.3476 7.85674 11.8971C7.85674 11.4467 7.94549 11.0007 8.11793 10.5846C8.29037 10.1685 8.54312 9.7904 8.86172 9.472L17.056 1.28C17.3744 0.961395 17.7525 0.708652 18.1686 0.536212C18.5847 0.363773 19.0307 0.275018 19.4811 0.275018C19.9316 0.275018 20.3776 0.363773 20.7937 0.536212C21.2098 0.708652 21.5879 0.961395 21.9063 1.28L25.5246 4.90057C26.1673 5.54352 26.5284 6.41544 26.5284 7.32457C26.5284 8.23371 26.1673 9.10562 25.5246 9.74857L22.6514 12.6194L31.3143 21.28C31.4734 21.4394 31.5995 21.6285 31.6855 21.8367C31.7715 22.0448 31.8156 22.2678 31.8154 22.493C31.8152 22.7182 31.7706 22.9412 31.6843 23.1492C31.5979 23.3571 31.4714 23.5461 31.312 23.7051C31.1526 23.8642 30.9635 23.9904 30.7553 24.0764C30.5472 24.1623 30.3242 24.2065 30.099 24.2063C29.8738 24.2061 29.6508 24.1615 29.4428 24.0751C29.2349 23.9887 29.046 23.8622 28.8869 23.7029L20.2286 15.0469L17.3303 17.9429C16.6874 18.5849 15.816 18.9456 14.9074 18.9456C13.9989 18.9456 13.1274 18.5849 12.4846 17.9429L8.85944 14.3223H8.86172ZM3.04229 28.2971H1.89944C1.44478 28.2971 1.00874 28.4778 0.687253 28.7992C0.365762 29.1207 0.18515 29.5568 0.18515 30.0114C0.18515 30.4661 0.365762 30.9021 0.687253 31.2236C1.00874 31.5451 1.44478 31.7257 1.89944 31.7257H19.0423C19.497 31.7257 19.933 31.5451 20.2545 31.2236C20.576 30.9021 20.7566 30.4661 20.7566 30.0114C20.7566 29.5568 20.576 29.1207 20.2545 28.7992C19.933 28.4778 19.497 28.2971 19.0423 28.2971H17.8994V24.2971C17.8994 23.994 17.779 23.7033 17.5647 23.489C17.3504 23.2747 17.0597 23.1543 16.7566 23.1543H4.18515C3.88205 23.1543 3.59136 23.2747 3.37703 23.489C3.1627 23.7033 3.04229 23.994 3.04229 24.2971V28.2971Z" fill="#EEEEEE"/>
</g>
<defs>
<clipPath id="clip0_87_3">
<rect width="32" height="32" fill="white"/>
</clipPath>
</defs>
</svg>
